<svg width="37" height="30" viewBox="0 0 37 30" fill="none" xmlns="http://www.w3.org/2000/svg">
<path d="M26.5078 0C23.2006 0 20.305 1.3875 18.5 3.73281C16.695 1.3875 13.7994 0 10.4922 0C7.85958 0.0028949 5.33565 1.02447 3.47412 2.8406C1.61258 4.65673 0.565467 7.1191 0.5625 9.6875C0.5625 20.625 17.1851 29.4781 17.893 29.8438C18.0796 29.9417 18.2881 29.9929 18.5 29.9929C18.7119 29.9929 18.9204 29.9417 19.107 29.8438C19.8149 29.4781 36.4375 20.625 36.4375 9.6875C36.4345 7.1191 35.3874 4.65673 33.5259 2.8406C31.6644 1.02447 29.1404 0.0028949 26.5078 0ZM18.5 27.3125C15.5755 25.65 3.125 18.0766 3.125 9.6875C3.12754 7.78202 3.90454 5.95529 5.28561 4.60791C6.66667 3.26053 8.53907 2.50248 10.4922 2.5C13.6072 2.5 16.2226 4.11875 17.3148 6.71875C17.4114 6.94801 17.5756 7.14411 17.7866 7.28211C17.9976 7.42011 18.246 7.49379 18.5 7.49379C18.754 7.49379 19.0024 7.42011 19.2134 7.28211C19.4244 7.14411 19.5886 6.94801 19.6852 6.71875C20.7774 4.11406 23.3928 2.5 26.5078 2.5C28.4609 2.50248 30.3333 3.26053 31.7144 4.60791C33.0955 5.95529 33.8725 7.78202 33.875 9.6875C33.875 18.0641 21.4212 25.6484 18.5 27.3125Z" fill="#11B0C8"/>
</svg>
