<svg width="27" height="26" viewBox="0 0 27 26" fill="none" xmlns="http://www.w3.org/2000/svg">
<path d="M23.6366 0.0449982H3.0859C2.26834 0.0449982 1.48427 0.381613 0.906168 0.980792C0.328069 1.57997 0.0032959 2.39263 0.0032959 3.24V18.15C0.0032959 18.9974 0.328069 19.81 0.906168 20.4092C1.48427 21.0084 2.26834 21.345 3.0859 21.345H23.6366C24.4541 21.345 25.2382 21.0084 25.8163 20.4092C26.3944 19.81 26.7192 18.9974 26.7192 18.15V3.24C26.7192 2.39263 26.3944 1.57997 25.8163 0.980792C25.2382 0.381613 24.4541 0.0449982 23.6366 0.0449982ZM24.6641 18.15C24.6641 18.4325 24.5558 18.7033 24.3631 18.9031C24.1704 19.1028 23.9091 19.215 23.6366 19.215H3.0859C2.81338 19.215 2.55202 19.1028 2.35932 18.9031C2.16662 18.7033 2.05836 18.4325 2.05836 18.15V3.24C2.05836 2.95754 2.16662 2.68666 2.35932 2.48693C2.55202 2.2872 2.81338 2.175 3.0859 2.175H23.6366C23.9091 2.175 24.1704 2.2872 24.3631 2.48693C24.5558 2.68666 24.6641 2.95754 24.6641 3.24V18.15ZM18.4989 24.54C18.4989 24.8225 18.3906 25.0933 18.1979 25.2931C18.0052 25.4928 17.7439 25.605 17.4714 25.605H9.25109C8.97857 25.605 8.71722 25.4928 8.52452 25.2931C8.33182 25.0933 8.22356 24.8225 8.22356 24.54C8.22356 24.2575 8.33182 23.9867 8.52452 23.7869C8.71722 23.5872 8.97857 23.475 9.25109 23.475H17.4714C17.7439 23.475 18.0052 23.5872 18.1979 23.7869C18.3906 23.9867 18.4989 24.2575 18.4989 24.54ZM18.0416 9.80839L11.8764 5.54839C11.7217 5.44135 11.5417 5.37989 11.3559 5.37055C11.17 5.36122 10.9852 5.40437 10.8212 5.4954C10.6571 5.58642 10.52 5.72191 10.4245 5.88739C10.3289 6.05287 10.2785 6.24214 10.2786 6.435V14.955C10.2785 15.1479 10.3289 15.3371 10.4245 15.5026C10.52 15.6681 10.6571 15.8036 10.8212 15.8946C10.9852 15.9856 11.17 16.0288 11.3559 16.0194C11.5417 16.0101 11.7217 15.9486 11.8764 15.8416L18.0416 11.5816C18.1826 11.4844 18.2982 11.3526 18.3781 11.1979C18.4581 11.0432 18.4999 10.8705 18.4999 10.695C18.4999 10.5195 18.4581 10.3468 18.3781 10.1921C18.2982 10.0374 18.1826 9.9056 18.0416 9.80839ZM12.3337 12.9648V8.43187L15.6192 10.695L12.3337 12.9648Z" fill="#313234"/>
</svg>
